# AST/ASF file generated using VICON BodyLanguage
# -----------------------------------------------
:version 1.10
:name VICON
:units
  mass 1.0
  length 0.45
  angle deg
:documentation
   .ast/.asf automatically generated from VICON data using
   VICON BodyBuilder and BodyLanguage model FoxedUp or BRILLIANT.MOD
:root
   order TX TY TZ RX RY RZ
   axis XYZ
   position 0 0 0  
   orientation 0 0 0 
:bonedata
  begin
     id 1 
     name lhipjoint
     direction 0.584852 -0.759097 0.285867 
     length 2.43633 
     axis 0 0 0  XYZ
  end
  begin
     id 2 
     name lfemur
     direction 0.34202 -0.939693 0  
     length 7.14704  
     axis 0 0 20  XYZ
    dof rx ry rz
    limits (-160.0 20.0)
           (-70.0 70.0)
           (-60.0 70.0)
  end
  begin
     id 3 
     name ltibia
     direction 0.342022 -0.939692 0   
     length 7.68483   
     axis 0 0 20   XYZ
    dof rx
    limits (-10.0 170.0)
  end
  begin
     id 4 
     name lfoot
     direction 0.0999605 -0.274639 0.956337   
     length 2.40452   
     axis -90 7.62852e-016 20   XYZ
    dof rx rz
    limits (-45.0 90.0)
           (-70.0 20.0)
  end
  begin
     id 5 
     name ltoes
     direction 1.53468e-011 -4.21881e-011 1   
     length 1.19837   
     axis -90 7.62852e-016 20   XYZ
    dof rx
    limits (-90.0 20.0)
  end
  begin
     id 6 
     name rhipjoint
     direction -0.569886 -0.769002 0.289597   
     length 2.40495  
     axis 0 0 0  XYZ 
  end
  begin
     id 7 
     name rfemur
     direction -0.34202 -0.939693 0   
     length 7.45086   
     axis 0 0 -20   XYZ
    dof rx ry rz
    limits (-160.0 20.0)
           (-70.0 70.0)
           (-70.0 60.0)
  end
  begin
     id 8 
     name rtibia
     direction -0.34202 -0.939693 0   
     length 7.76831   
     axis 0 0 -20   XYZ
    dof rx
    limits (-10.0 170.0)
 end
 begin
     id 9 
     name rfoot
     direction -0.0798572 -0.219406 0.97236   
     length 2.35911  
     axis -90 -7.62852e-016 -20   XYZ
    dof rx rz
    limits (-45.0 90.0)
           (-20.0 70.0)
  end
  begin
     id 10 
     name rtoes
     direction -1.53469e-011 -4.21728e-011 1   
     length 1.18261   
     axis -90 -7.62852e-016 -20   XYZ
    dof rx
    limits (-90.0 20.0)
  end
  begin
     id 11 
     name lowerback
     direction 0.0242088 0.999437 0.0232389   
     length 2.1561   
     axis 0 0 0   XYZ
    dof rx ry rz
    limits (-20.0 45.0)
           (-30.0 30.0)
           (-30.0 30.0)
  end
  begin
     id 12 
     name upperback
     direction -0.0356893 0.999013 -0.0264323   
     length 2.14431   
     axis 0 0 0   XYZ
    dof rx ry rz
    limits (-20.0 45.0)
           (-30.0 30.0)
           (-30.0 30.0)
  end
  begin
     id 13 
     name thorax
     direction -0.0472163 0.998194 -0.0371284   
     length 2.16169   
     axis 0 0 0   XYZ
    dof rx ry rz
    limits (-20.0 45.0)
           (-30.0 30.0)
           (-30.0 30.0)
  end
  begin
     id 14 
     name lowerneck
     direction 0.00863244 0.999921 0.00911972   
     length 1.58651   
     axis 0 0 0   XYZ
    dof rx ry rz
    limits (-20.0 45.0)
           (-30.0 30.0)
           (-30.0 30.0)
  end
  begin
     id 15 
     name upperneck
     direction 0.149523 0.979068 -0.138086   
     length 1.57486   
     axis 0 0 0   XYZ
    dof rx ry rz
    limits (-20.0 45.0)
           (-30.0 30.0)
           (-30.0 30.0)
  end
  begin
     id 16
     name head
     direction 0.0445219 0.997708 -0.0509576  
     length 1.6019  
     axis 0 0 0   XYZ
    dof rx ry rz
    limits (-20.0 45.0)
           (-30.0 30.0)
           (-30.0 30.0)
  end
  begin
     id 17 
     name lclavicle
     direction 0.911271 0.381667 -0.154644  
     length 3.80848  
     axis 0 0 0   XYZ
    dof ry rz
    limits (-20.0 10.0)
           (0.0 20.0)
  end
  begin
     id 18 
     name lhumerus
     direction 1 -4.49003e-011 2.1308e-027   
     length 5.19069   
     axis 180 -30 -90   XYZ
    dof rx ry rz
    limits (-60.0 90.0)
           (-90.0 90.0)
           (-90.0 90.0)
  end
  begin
     id 19
     name lradius
     direction 1 -4.48914e-011 4.01554e-027   
     length 3.30016   
     axis 180 -30 -90   XYZ
    dof rx
    limits (-10.0 170.0)
  end
  begin
     id 20
     name lwrist
     direction 1 -4.49003e-011 1.1934e-026   
     length 1.65008   
     axis -8.46377e-015 90 90   XYZ
    dof ry
    limits (-180.0 0.0)
 end
  begin
     id 21 
     name lhand
     direction 1 -4.49034e-011 2.38659e-026   
     length 0.707698   
     axis -1.52313e-014 90 90   XYZ
    dof rx rz
    limits (-90.0 90.0)
           (-45.0 45.0)
  end
  begin
     id 22 
     name lfingers
     direction 1 -4.48691e-011 4.77775e-026   
     length 0.570564   
     axis -3.04623e-014 90 90   XYZ
    dof rx
    limits (0.0 90.0)
  end
  begin
     id 23
     name lthumb
     direction 0.707107 -6.34832e-011 0.707107   
     length 0.819219   
     axis -90 45 -1.62303e-014   XYZ
    dof rx rz
    limits (-45.0 45.0)
           (-45.0 45.0)
  end
  begin
     id 24 
     name rclavicle
     direction -0.815579 0.573708 -0.0754329   
     length 3.54371  
     axis 0 0 0   XYZ 
    dof ry rz
    limits (-10.0 20.0)
           (-20.0 0.0)
  end
  begin
     id 25 
     name rhumerus
     direction -1 -4.48956e-011 3.05351e-028  
     length 5.23924   
     axis 180 30 90   XYZ
    dof rx ry rz
    limits (-90.0 60.0)
           (-90.0 90.0)
           (-90.0 90.0)
  end
  begin
     id 26 
     name rradius
     direction -1 -4.49013e-011 3.53849e-027   
     length 3.32953   
     axis 180 30 90   XYZ
    dof rx
    limits (-10.0 170.0)
  end
  begin
     id 27 
     name rwrist
     direction -1 -4.48901e-011 1.19374e-026   
     length 1.66477   
     axis -8.46377e-015 -90 -90   XYZ
    dof ry
    limits (-180.0 0.0)
  end
  begin
     id 28
     name rhand
     direction -1 -4.48877e-011 2.38764e-026   
     length 0.607414   
     axis -1.52313e-014 -90 -90   XYZ
    dof rx rz
    limits (-90.0 90.0)
           (-45.0 45.0)
  end
  begin
     id 29
     name rfingers
     direction -1 -4.48882e-011 4.77521e-026   
     length 0.489712   
     axis -3.04623e-014 -90 -90   XYZ
    dof rx
    limits (0.0 90.0)
  end
  begin
     id 30
     name rthumb
     direction -0.707107 -6.34974e-011 0.707107   
     length 0.703132   
     axis -90 -45 1.62303e-014   XYZ
    dof rx rz
    limits (-45.0 45.0)
           (-45.0 45.0)
  end
:hierarchy
  begin
    root lhipjoint rhipjoint lowerback
    lhipjoint lfemur
    lfemur ltibia
    ltibia lfoot
    lfoot ltoes
    rhipjoint rfemur
    rfemur rtibia
    rtibia rfoot
    rfoot rtoes
    lowerback upperback
    upperback thorax
    thorax lowerneck lclavicle rclavicle
    lowerneck upperneck
    upperneck head
    lclavicle lhumerus
    lhumerus lradius
    lradius lwrist
    lwrist lhand lthumb
    lhand lfingers
    rclavicle rhumerus
    rhumerus rradius
    rradius rwrist
    rwrist rhand rthumb
    rhand rfingers
  end

#!OML:ASF E:\VariousWalksJay\Project 1\Capture day 1\Session 1\Actor2.ASF
:FULLY-SPECIFIED
:DEGREES
268
root 27.4355 16.1693 -27.2553 2.07158 -40.5199 0.119352
lowerback 15.961 -1.52177 1.61645
upperback 18.91 -2.35112 -5.76551
thorax 11.7918 -0.767942 -7.26785
lowerneck 9.81647 1.0954 0.186302
upperneck -3.7898 1.8919 6.89786
head -3.04806 0.646309 2.13525
rclavicle -1.43125e-014 -2.46493e-014
rhumerus -30.9985 15.3332 -92.6391
rradius 61.3151
rwrist 2.89484
rhand -23.3538 -5.52091
rfingers 7.12502
rthumb 3.10139 -35.4781
lclavicle -1.43125e-014 -2.46493e-014
lhumerus 31.8922 -23.8981 58.0673
lradius 73.556
lwrist 60.5476
lhand -37.6484 15.1336
lfingers 7.12502
lthumb -10.7001 44.8411
rfemur -49.2982 1.33949 28.2462
rtibia 19.5359
rfoot -18.7761 -9.25005
rtoes -23.8941
lfemur -21.0478 18.7282 -29.6415
ltibia 53.6594
lfoot -33.5271 7.81601
ltoes -6.44157
269
root 27.3768 16.1743 -27.1637 1.82745 -40.5207 0.270709
lowerback 15.4358 -1.55194 1.55384
upperback 18.7424 -2.37376 -5.85562
thorax 11.8639 -0.774456 -7.34226
lowerneck 9.8406 1.13043 0.197374
upperneck -3.21368 1.90008 6.88315
head -2.85488 0.663267 2.1208
rclavicle -7.15625e-014 1.35174e-014
rhumerus -31.2062 15.2618 -92.8451
rradius 61.0841
rwrist 2.96977
rhand -23.3045 -5.52595
rfingers 7.12502
rthumb 3.14903 -35.4824
lclavicle -7.15625e-014 1.35174e-014
lhumerus 31.418 -24.052 58.2167
lradius 72.8959
lwrist 60.4576
lhand -37.5267 15.0166
lfingers 7.12502
lthumb -10.5827 44.7302
rfemur -48.6015 0.852781 28.5918
rtibia 18.9328
rfoot -18.6705 -9.09497
rtoes -23.7889
lfemur -20.2817 19.152 -29.5233
ltibia 53.4474
lfoot -33.5203 7.27701
ltoes -6.92295
270
root 27.3175 16.1801 -27.0715 1.60571 -40.5041 0.414592
lowerback 14.9159 -1.59011 1.50352
upperback 18.5713 -2.40548 -5.94257
thorax 11.9292 -0.784395 -7.41949
lowerneck 9.86872 1.15812 0.193189
upperneck -2.65591 1.89808 6.87582
head -2.67002 0.674453 2.11288
rclavicle 6.04305e-014 -5.08889e-014
rhumerus -31.4141 15.1838 -93.0447
rradius 60.8659
rwrist 3.04748
rhand -23.2574 -5.52077
rfingers 7.12502
rthumb 3.19453 -35.4766
lclavicle 6.04305e-014 -5.08889e-014
lhumerus 30.9334 -24.2152 58.37
lradius 72.2318
lwrist 60.393
lhand -37.4212 14.8875
lfingers 7.12502
lthumb -10.481 44.6062
rfemur -47.9381 0.402007 28.8773
rtibia 18.3751
rfoot -18.5706 -8.94594
rtoes -23.6335
lfemur -19.5288 19.5522 -29.3954
ltibia 53.2265
lfoot -33.4904 6.73177
ltoes -7.37734
271
root 27.2578 16.1862 -26.9786 1.40654 -40.4683 0.556738
lowerback 14.3916 -1.63944 1.46426
upperback 18.4 -2.45065 -6.02917
thorax 11.9968 -0.799481 -7.50276
lowerneck 9.8926 1.17983 0.186207
upperneck -2.11583 1.88831 6.86084
head -2.4911 0.681595 2.10388
rclavicle 9.54166e-014 3.65764e-014
rhumerus -31.6165 15.1022 -93.2396
rradius 60.6612
rwrist 3.12355
rhand -23.2154 -5.50887
rfingers 7.12502
rthumb 3.23507 -35.4641
lclavicle 9.54166e-014 3.65764e-014
lhumerus 30.4348 -24.3791 58.5224
lradius 71.5749
lwrist 60.3613
lhand -37.3157 14.7959
lfingers 7.12502
lthumb -10.3792 44.5197
rfemur -47.3154 -0.00835074 29.0945
rtibia 17.8693
rfoot -18.4678 -8.80896
rtoes -23.468
lfemur -18.7957 19.9291 -29.2696
ltibia 52.9967
lfoot -33.4391 6.19749
ltoes -7.8169
272
root 27.1976 16.1929 -26.8848 1.22668 -40.4225 0.691725
lowerback 13.8661 -1.70003 1.44489
upperback 18.2311 -2.5092 -6.12108
thorax 12.0678 -0.818093 -7.60402
lowerneck 9.9118 1.20496 0.174078
upperneck -1.59383 1.88328 6.84099
head -2.31863 0.690747 2.09447
rclavicle -5.725e-014 9.54166e-015
rhumerus -31.8151 15.0212 -93.4391
rradius 60.4743
rwrist 3.1903
rhand -23.1743 -5.47055
rfingers 7.12502
rthumb 3.27473 -35.4251
lclavicle -5.725e-014 9.54166e-015
lhumerus 29.9166 -24.5419 58.6679
lradius 70.9344
lwrist 60.3571
lhand -37.2161 14.7113
lfingers 7.12502
lthumb -10.2831 44.4399
rfemur -46.7248 -0.366843 29.2481
rtibia 17.4204
rfoot -18.3729 -8.68504
rtoes -23.2742
lfemur -18.0717 20.2936 -29.1415
ltibia 52.7532
lfoot -33.3714 5.68724
ltoes -8.24785
273
root 27.137 16.2002 -26.79 1.07051 -40.3679 0.813615
lowerback 13.3575 -1.75004 1.42948
upperback 18.0549 -2.55439 -6.19298
thorax 12.1242 -0.831765 -7.68464
lowerneck 9.93258 1.21429 0.187668
upperneck -1.07826 1.85965 6.79435
head -2.1479 0.69095 2.07286
rclavicle -2.06736e-014 -6.52014e-014
rhumerus -32.0308 14.8983 -93.6085
rradius 60.3125
rwrist 3.25278
rhand -23.1277 -5.43034
rfingers 7.12502
rthumb 3.31979 -35.3842
lclavicle -2.06736e-014 -6.52014e-014
lhumerus 29.3905 -24.7524 58.835
lradius 70.3155
lwrist 60.3799
lhand -37.1324 14.637
lfingers 7.12502
lthumb -10.2023 44.3696
rfemur -46.1643 -0.677785 29.3506
rtibia 17.0258
rfoot -18.2832 -8.57782
rtoes -23.1069
lfemur -17.3548 20.6439 -29.0085
ltibia 52.4918
lfoot -33.2927 5.20844
ltoes -8.67092
274
root 27.0757 16.2081 -26.6943 0.936338 -40.312 0.91966
lowerback 12.841 -1.80951 1.44292
upperback 17.8855 -2.61066 -6.27401
thorax 12.1936 -0.845989 -7.79388
lowerneck 9.92632 1.23264 0.211049
upperneck -0.553715 1.84788 6.74299
head -1.97042 0.697537 2.04756
rclavicle 3.02153e-014 -1.59028e-015
rhumerus -32.2345 14.7775 -93.7923
rradius 60.1659
rwrist 3.30526
rhand -23.088 -5.39347
rfingers 7.12502
rthumb 3.35812 -35.3468
lclavicle 3.02153e-014 -1.59028e-015
lhumerus 28.8465 -24.9625 58.9826
lradius 69.7224
lwrist 60.4115
lhand -37.0411 14.609
lfingers 7.12502
lthumb -10.1143 44.3459
rfemur -45.6293 -0.93769 29.411
rtibia 16.6851
rfoot -18.2139 -8.48897
rtoes -22.907
lfemur -16.6365 20.9858 -28.8655
ltibia 52.2053
lfoot -33.2058 4.7537
ltoes -9.06968
275
root 27.0138 16.2165 -26.5975 0.818541 -40.2597 1.01813
lowerback 12.3473 -1.85972 1.45242
upperback 17.7059 -2.656 -6.3402
thorax 12.2405 -0.857538 -7.88287
lowerneck 9.9043 1.24597 0.253973
upperneck -0.00502833 1.8292 6.67141
head -1.78222 0.701775 2.01265
rclavicle -1.25632e-013 -7.15625e-014
rhumerus -32.4582 14.643 -93.9547
rradius 60.0407
rwrist 3.34261
rhand -23.0513 -5.37591
rfingers 7.12502
rthumb 3.39353 -35.3286
lclavicle -1.25632e-013 -7.15625e-014
lhumerus 28.2686 -25.2073 59.162
lradius 69.1557
lwrist 60.4348
lhand -36.9437 14.6093
lfingers 7.12502
lthumb -10.0204 44.3508
rfemur -45.121 -1.16982 29.4467
rtibia 16.3942
rfoot -18.148 -8.41995
rtoes -22.8023
lfemur -15.9101 21.3141 -28.7193
ltibia 51.8895
lfoot -33.1148 4.32437
ltoes -9.45146
276
root 26.9512 16.2258 -26.4994 0.71611 -40.2118 1.10821
lowerback 11.8589 -1.91037 1.47465
upperback 17.5268 -2.70201 -6.4067
thorax 12.2864 -0.867907 -7.98012
lowerneck 9.85522 1.26316 0.306051
upperneck 0.562795 1.81501 6.60057
head -1.58414 0.70883 1.97652
rclavicle -9.54166e-014 8.74653e-014
rhumerus -32.6755 14.5122 -94.1156
rradius 59.9247
rwrist 3.3661
rhand -23.0206 -5.38469
rfingers 7.12502
rthumb 3.42316 -35.3369
lclavicle -9.54166e-014 8.74653e-014
lhumerus 27.6648 -25.4663 59.3413
lradius 68.6175
lwrist 60.4393
lhand -36.8779 14.5472
lfingers 7.12502
lthumb -9.95686 44.2917
rfemur -44.6343 -1.38838 29.4695
rtibia 16.1462
rfoot -18.1044 -8.35221
rtoes -22.6744
lfemur -15.1681 21.6237 -28.5667
ltibia 51.5383
lfoot -33.022 3.91887
ltoes -9.83367
277
root 26.888 16.2358 -26.4003 0.632254 -40.1709 1.18843
lowerback 11.3941 -1.95449 1.49117
upperback 17.3374 -2.74092 -6.45865
thorax 12.3088 -0.877862 -8.05587
lowerneck 9.80156 1.27982 0.354004
upperneck 1.13353 1.79964 6.53301
head -1.38572 0.715111 1.94289
rclavicle -4.45278e-014 3.97569e-014
rhumerus -32.8994 14.3877 -94.2549
rradius 59.814
rwrist 3.3793
rhand -22.9916 -5.39394
rfingers 7.12502
rthumb 3.45125 -35.3457
lclavicle -4.45278e-014 3.97569e-014
lhumerus 27.0223 -25.7468 59.5556
lradius 68.1018
lwrist 60.4137
lhand -36.7494 14.5995
lfingers 7.12502
lthumb -9.83285 44.3499
rfemur -44.1711 -1.58738 29.4803
rtibia 15.9369
rfoot -18.0789 -8.29675
rtoes -22.501
lfemur -14.4153 21.9077 -28.4063
ltibia 51.1512
lfoot -32.9233 3.5336
ltoes -10.2156
